G04 #@! TF.GenerationSoftware,KiCad,Pcbnew,(5.1.5-0-10_14)*
G04 #@! TF.CreationDate,2020-02-28T08:34:56+01:00*
G04 #@! TF.ProjectId,CC1101_Module,43433131-3031-45f4-9d6f-64756c652e6b,rev?*
G04 #@! TF.SameCoordinates,Original*
G04 #@! TF.FileFunction,Legend,Bot*
G04 #@! TF.FilePolarity,Positive*
%FSLAX46Y46*%
G04 Gerber Fmt 4.6, Leading zero omitted, Abs format (unit mm)*
G04 Created by KiCad (PCBNEW (5.1.5-0-10_14)) date 2020-02-28 08:34:56*
%MOMM*%
%LPD*%
G04 APERTURE LIST*
%ADD10C,0.150000*%
%ADD11C,0.120000*%
G04 APERTURE END LIST*
D10*
X48980225Y-51056311D02*
X48978493Y-51627736D01*
X48979359Y-51342023D02*
X47979364Y-51338993D01*
X48121932Y-51434664D01*
X48216881Y-51530190D01*
X48264211Y-51625572D01*
X47982827Y-50196141D02*
X47982250Y-50386617D01*
X48029580Y-50481999D01*
X48077054Y-50529762D01*
X48219622Y-50625432D01*
X48409953Y-50673628D01*
X48790904Y-50674783D01*
X48886286Y-50627452D01*
X48934049Y-50579978D01*
X48981957Y-50484885D01*
X48982534Y-50294409D01*
X48935203Y-50199027D01*
X48887729Y-50151264D01*
X48792636Y-50103357D01*
X48554541Y-50102635D01*
X48459159Y-50149965D01*
X48411396Y-50197440D01*
X48363489Y-50292533D01*
X48362912Y-50483009D01*
X48410242Y-50578391D01*
X48457716Y-50626154D01*
X48552810Y-50674061D01*
X48936935Y-49627601D02*
X48984554Y-49627746D01*
X49079647Y-49675653D01*
X49127122Y-49723416D01*
X47985569Y-49291384D02*
X47987589Y-48624720D01*
X48986285Y-49056320D01*
X47990042Y-47815200D02*
X47989465Y-48005675D01*
X48036795Y-48101057D01*
X48084269Y-48148820D01*
X48226837Y-48244491D01*
X48417168Y-48292687D01*
X48798119Y-48293841D01*
X48893501Y-48246511D01*
X48941264Y-48199036D01*
X48989171Y-48103943D01*
X48989749Y-47913468D01*
X48942418Y-47818086D01*
X48894944Y-47770323D01*
X48799851Y-47722415D01*
X48561756Y-47721694D01*
X48466374Y-47769024D01*
X48418611Y-47816499D01*
X48370704Y-47911592D01*
X48370127Y-48102067D01*
X48417457Y-48197449D01*
X48464931Y-48245212D01*
X48560025Y-48293120D01*
X48326260Y-46863833D02*
X48992923Y-46865854D01*
X47944588Y-47100773D02*
X48658148Y-47341032D01*
X48660024Y-46721987D01*
X48996819Y-45580145D02*
X48330156Y-45578125D01*
X48425393Y-45578414D02*
X48377919Y-45530650D01*
X48330589Y-45435269D01*
X48331022Y-45292412D01*
X48378929Y-45197319D01*
X48474311Y-45149988D01*
X48998118Y-45151576D01*
X48474311Y-45149988D02*
X48379218Y-45102081D01*
X48331887Y-45006699D01*
X48332320Y-44863843D01*
X48380228Y-44768749D01*
X48475610Y-44721419D01*
X48999417Y-44723006D01*
X49000860Y-44246818D02*
X48334196Y-44244798D01*
X48429434Y-44245086D02*
X48381959Y-44197323D01*
X48334629Y-44101941D01*
X48335062Y-43959085D01*
X48382969Y-43863991D01*
X48478351Y-43816661D01*
X49002158Y-43818249D01*
X48478351Y-43816661D02*
X48383258Y-43768754D01*
X48335928Y-43673372D01*
X48336361Y-43530515D01*
X48384268Y-43435422D01*
X48479650Y-43388092D01*
X49003457Y-43389679D01*
D11*
X49834063Y-39105376D02*
X49783263Y-55869376D01*
X53340000Y-39116000D02*
X49247645Y-39103599D01*
X53289200Y-55880000D02*
X49196845Y-55867599D01*
X49783263Y-55869376D02*
X49200259Y-54741100D01*
X49783263Y-55869376D02*
X50373095Y-54744654D01*
X49834063Y-39105376D02*
X49244231Y-40230098D01*
X49834063Y-39105376D02*
X50417067Y-40233652D01*
D10*
X59293571Y-36266380D02*
X58722142Y-36266380D01*
X59007857Y-36266380D02*
X59007857Y-35266380D01*
X58912619Y-35409238D01*
X58817380Y-35504476D01*
X58722142Y-35552095D01*
X59769761Y-36266380D02*
X59960238Y-36266380D01*
X60055476Y-36218761D01*
X60103095Y-36171142D01*
X60198333Y-36028285D01*
X60245952Y-35837809D01*
X60245952Y-35456857D01*
X60198333Y-35361619D01*
X60150714Y-35314000D01*
X60055476Y-35266380D01*
X59865000Y-35266380D01*
X59769761Y-35314000D01*
X59722142Y-35361619D01*
X59674523Y-35456857D01*
X59674523Y-35694952D01*
X59722142Y-35790190D01*
X59769761Y-35837809D01*
X59865000Y-35885428D01*
X60055476Y-35885428D01*
X60150714Y-35837809D01*
X60198333Y-35790190D01*
X60245952Y-35694952D01*
X60722142Y-36218761D02*
X60722142Y-36266380D01*
X60674523Y-36361619D01*
X60626904Y-36409238D01*
X61341190Y-35266380D02*
X61436428Y-35266380D01*
X61531666Y-35314000D01*
X61579285Y-35361619D01*
X61626904Y-35456857D01*
X61674523Y-35647333D01*
X61674523Y-35885428D01*
X61626904Y-36075904D01*
X61579285Y-36171142D01*
X61531666Y-36218761D01*
X61436428Y-36266380D01*
X61341190Y-36266380D01*
X61245952Y-36218761D01*
X61198333Y-36171142D01*
X61150714Y-36075904D01*
X61103095Y-35885428D01*
X61103095Y-35647333D01*
X61150714Y-35456857D01*
X61198333Y-35361619D01*
X61245952Y-35314000D01*
X61341190Y-35266380D01*
X62579285Y-35266380D02*
X62103095Y-35266380D01*
X62055476Y-35742571D01*
X62103095Y-35694952D01*
X62198333Y-35647333D01*
X62436428Y-35647333D01*
X62531666Y-35694952D01*
X62579285Y-35742571D01*
X62626904Y-35837809D01*
X62626904Y-36075904D01*
X62579285Y-36171142D01*
X62531666Y-36218761D01*
X62436428Y-36266380D01*
X62198333Y-36266380D01*
X62103095Y-36218761D01*
X62055476Y-36171142D01*
X63245952Y-35266380D02*
X63341190Y-35266380D01*
X63436428Y-35314000D01*
X63484047Y-35361619D01*
X63531666Y-35456857D01*
X63579285Y-35647333D01*
X63579285Y-35885428D01*
X63531666Y-36075904D01*
X63484047Y-36171142D01*
X63436428Y-36218761D01*
X63341190Y-36266380D01*
X63245952Y-36266380D01*
X63150714Y-36218761D01*
X63103095Y-36171142D01*
X63055476Y-36075904D01*
X63007857Y-35885428D01*
X63007857Y-35647333D01*
X63055476Y-35456857D01*
X63103095Y-35361619D01*
X63150714Y-35314000D01*
X63245952Y-35266380D01*
X64769761Y-36266380D02*
X64769761Y-35599714D01*
X64769761Y-35694952D02*
X64817380Y-35647333D01*
X64912619Y-35599714D01*
X65055476Y-35599714D01*
X65150714Y-35647333D01*
X65198333Y-35742571D01*
X65198333Y-36266380D01*
X65198333Y-35742571D02*
X65245952Y-35647333D01*
X65341190Y-35599714D01*
X65484047Y-35599714D01*
X65579285Y-35647333D01*
X65626904Y-35742571D01*
X65626904Y-36266380D01*
X66103095Y-36266380D02*
X66103095Y-35599714D01*
X66103095Y-35694952D02*
X66150714Y-35647333D01*
X66245952Y-35599714D01*
X66388809Y-35599714D01*
X66484047Y-35647333D01*
X66531666Y-35742571D01*
X66531666Y-36266380D01*
X66531666Y-35742571D02*
X66579285Y-35647333D01*
X66674523Y-35599714D01*
X66817380Y-35599714D01*
X66912619Y-35647333D01*
X66960238Y-35742571D01*
X66960238Y-36266380D01*
D11*
X53340000Y-37084000D02*
X72390000Y-37084000D01*
X53340000Y-38354000D02*
X53340000Y-36497579D01*
X72390000Y-38354000D02*
X72390000Y-36497579D01*
X72390000Y-37084000D02*
X71263496Y-37670421D01*
X72390000Y-37084000D02*
X71263496Y-36497579D01*
X53340000Y-37084000D02*
X54466504Y-37670421D01*
X53340000Y-37084000D02*
X54466504Y-36497579D01*
M02*
