G04 #@! TF.GenerationSoftware,KiCad,Pcbnew,(5.1.5-0-10_14)*
G04 #@! TF.CreationDate,2020-02-28T08:34:56+01:00*
G04 #@! TF.ProjectId,CC1101_Module,43433131-3031-45f4-9d6f-64756c652e6b,rev?*
G04 #@! TF.SameCoordinates,Original*
G04 #@! TF.FileFunction,Copper,L2,Bot*
G04 #@! TF.FilePolarity,Positive*
%FSLAX46Y46*%
G04 Gerber Fmt 4.6, Leading zero omitted, Abs format (unit mm)*
G04 Created by KiCad (PCBNEW (5.1.5-0-10_14)) date 2020-02-28 08:34:56*
%MOMM*%
%LPD*%
G04 APERTURE LIST*
%ADD10C,0.800000*%
%ADD11C,0.250000*%
%ADD12C,0.254000*%
G04 APERTURE END LIST*
D10*
X58928000Y-45466000D03*
X57404000Y-54356000D03*
X64770000Y-54102000D03*
X59073100Y-50764600D03*
X56812700Y-47827900D03*
X58446900Y-43055200D03*
X60909400Y-43809500D03*
X55634400Y-46648100D03*
X62063700Y-48164300D03*
X59611000Y-48566400D03*
D11*
X56812700Y-47827900D02*
X56812700Y-48504200D01*
X56812700Y-48504200D02*
X59073100Y-50764600D01*
X59201200Y-43809500D02*
X58094800Y-44915900D01*
X58094800Y-44915900D02*
X58094800Y-46648100D01*
X60909400Y-43809500D02*
X59201200Y-43809500D01*
X59201200Y-43809500D02*
X58446900Y-43055200D01*
X58094800Y-46648100D02*
X55634400Y-46648100D01*
X59611000Y-48164300D02*
X58094800Y-46648100D01*
X59611000Y-48164300D02*
X62063700Y-48164300D01*
X59611000Y-48566400D02*
X59611000Y-48164300D01*
D12*
G36*
X72467001Y-55195000D02*
G01*
X53974200Y-55195000D01*
X53974200Y-46546161D01*
X54599400Y-46546161D01*
X54599400Y-46750039D01*
X54639174Y-46949998D01*
X54717195Y-47138356D01*
X54830463Y-47307874D01*
X54974626Y-47452037D01*
X55144144Y-47565305D01*
X55332502Y-47643326D01*
X55532461Y-47683100D01*
X55736339Y-47683100D01*
X55788281Y-47672768D01*
X55777700Y-47725961D01*
X55777700Y-47929839D01*
X55817474Y-48129798D01*
X55895495Y-48318156D01*
X56008763Y-48487674D01*
X56051617Y-48530528D01*
X56052700Y-48541522D01*
X56052700Y-48541533D01*
X56063697Y-48653186D01*
X56092017Y-48746545D01*
X56107154Y-48796446D01*
X56177726Y-48928476D01*
X56228772Y-48990675D01*
X56272700Y-49044201D01*
X56301698Y-49067999D01*
X58038100Y-50804402D01*
X58038100Y-50866539D01*
X58077874Y-51066498D01*
X58155895Y-51254856D01*
X58269163Y-51424374D01*
X58413326Y-51568537D01*
X58582844Y-51681805D01*
X58771202Y-51759826D01*
X58971161Y-51799600D01*
X59175039Y-51799600D01*
X59374998Y-51759826D01*
X59563356Y-51681805D01*
X59732874Y-51568537D01*
X59877037Y-51424374D01*
X59990305Y-51254856D01*
X60068326Y-51066498D01*
X60108100Y-50866539D01*
X60108100Y-50662661D01*
X60068326Y-50462702D01*
X59990305Y-50274344D01*
X59877037Y-50104826D01*
X59732874Y-49960663D01*
X59563356Y-49847395D01*
X59374998Y-49769374D01*
X59175039Y-49729600D01*
X59112902Y-49729600D01*
X57718510Y-48335209D01*
X57729905Y-48318156D01*
X57807926Y-48129798D01*
X57847700Y-47929839D01*
X57847700Y-47725961D01*
X57807926Y-47526002D01*
X57759089Y-47408100D01*
X57779999Y-47408100D01*
X58621815Y-48249917D01*
X58615774Y-48264502D01*
X58576000Y-48464461D01*
X58576000Y-48668339D01*
X58615774Y-48868298D01*
X58693795Y-49056656D01*
X58807063Y-49226174D01*
X58951226Y-49370337D01*
X59120744Y-49483605D01*
X59309102Y-49561626D01*
X59509061Y-49601400D01*
X59712939Y-49601400D01*
X59912898Y-49561626D01*
X60101256Y-49483605D01*
X60270774Y-49370337D01*
X60414937Y-49226174D01*
X60528205Y-49056656D01*
X60583029Y-48924300D01*
X61359989Y-48924300D01*
X61403926Y-48968237D01*
X61573444Y-49081505D01*
X61761802Y-49159526D01*
X61961761Y-49199300D01*
X62165639Y-49199300D01*
X62365598Y-49159526D01*
X62553956Y-49081505D01*
X62723474Y-48968237D01*
X62867637Y-48824074D01*
X62980905Y-48654556D01*
X63058926Y-48466198D01*
X63098700Y-48266239D01*
X63098700Y-48062361D01*
X63058926Y-47862402D01*
X62980905Y-47674044D01*
X62867637Y-47504526D01*
X62723474Y-47360363D01*
X62553956Y-47247095D01*
X62365598Y-47169074D01*
X62165639Y-47129300D01*
X61961761Y-47129300D01*
X61761802Y-47169074D01*
X61573444Y-47247095D01*
X61403926Y-47360363D01*
X61359989Y-47404300D01*
X59925802Y-47404300D01*
X58854800Y-46333299D01*
X58854800Y-45230701D01*
X59516002Y-44569500D01*
X60205689Y-44569500D01*
X60249626Y-44613437D01*
X60419144Y-44726705D01*
X60607502Y-44804726D01*
X60807461Y-44844500D01*
X61011339Y-44844500D01*
X61211298Y-44804726D01*
X61399656Y-44726705D01*
X61569174Y-44613437D01*
X61713337Y-44469274D01*
X61826605Y-44299756D01*
X61904626Y-44111398D01*
X61944400Y-43911439D01*
X61944400Y-43707561D01*
X61904626Y-43507602D01*
X61826605Y-43319244D01*
X61713337Y-43149726D01*
X61569174Y-43005563D01*
X61399656Y-42892295D01*
X61211298Y-42814274D01*
X61011339Y-42774500D01*
X60807461Y-42774500D01*
X60607502Y-42814274D01*
X60419144Y-42892295D01*
X60249626Y-43005563D01*
X60205689Y-43049500D01*
X59516002Y-43049500D01*
X59481900Y-43015398D01*
X59481900Y-42953261D01*
X59442126Y-42753302D01*
X59364105Y-42564944D01*
X59250837Y-42395426D01*
X59106674Y-42251263D01*
X58937156Y-42137995D01*
X58748798Y-42059974D01*
X58548839Y-42020200D01*
X58344961Y-42020200D01*
X58145002Y-42059974D01*
X57956644Y-42137995D01*
X57787126Y-42251263D01*
X57642963Y-42395426D01*
X57529695Y-42564944D01*
X57451674Y-42753302D01*
X57411900Y-42953261D01*
X57411900Y-43157139D01*
X57451674Y-43357098D01*
X57529695Y-43545456D01*
X57642963Y-43714974D01*
X57787126Y-43859137D01*
X57956644Y-43972405D01*
X57961487Y-43974411D01*
X57583802Y-44352096D01*
X57554799Y-44375899D01*
X57499671Y-44443074D01*
X57459826Y-44491624D01*
X57447307Y-44515046D01*
X57389254Y-44623654D01*
X57345797Y-44766915D01*
X57334800Y-44878568D01*
X57334800Y-44878578D01*
X57331124Y-44915900D01*
X57334800Y-44953223D01*
X57334801Y-45888100D01*
X56338111Y-45888100D01*
X56294174Y-45844163D01*
X56124656Y-45730895D01*
X55936298Y-45652874D01*
X55736339Y-45613100D01*
X55532461Y-45613100D01*
X55332502Y-45652874D01*
X55144144Y-45730895D01*
X54974626Y-45844163D01*
X54830463Y-45988326D01*
X54717195Y-46157844D01*
X54639174Y-46346202D01*
X54599400Y-46546161D01*
X53974200Y-46546161D01*
X53974200Y-39851800D01*
X72467000Y-39851800D01*
X72467001Y-55195000D01*
G37*
X72467001Y-55195000D02*
X53974200Y-55195000D01*
X53974200Y-46546161D01*
X54599400Y-46546161D01*
X54599400Y-46750039D01*
X54639174Y-46949998D01*
X54717195Y-47138356D01*
X54830463Y-47307874D01*
X54974626Y-47452037D01*
X55144144Y-47565305D01*
X55332502Y-47643326D01*
X55532461Y-47683100D01*
X55736339Y-47683100D01*
X55788281Y-47672768D01*
X55777700Y-47725961D01*
X55777700Y-47929839D01*
X55817474Y-48129798D01*
X55895495Y-48318156D01*
X56008763Y-48487674D01*
X56051617Y-48530528D01*
X56052700Y-48541522D01*
X56052700Y-48541533D01*
X56063697Y-48653186D01*
X56092017Y-48746545D01*
X56107154Y-48796446D01*
X56177726Y-48928476D01*
X56228772Y-48990675D01*
X56272700Y-49044201D01*
X56301698Y-49067999D01*
X58038100Y-50804402D01*
X58038100Y-50866539D01*
X58077874Y-51066498D01*
X58155895Y-51254856D01*
X58269163Y-51424374D01*
X58413326Y-51568537D01*
X58582844Y-51681805D01*
X58771202Y-51759826D01*
X58971161Y-51799600D01*
X59175039Y-51799600D01*
X59374998Y-51759826D01*
X59563356Y-51681805D01*
X59732874Y-51568537D01*
X59877037Y-51424374D01*
X59990305Y-51254856D01*
X60068326Y-51066498D01*
X60108100Y-50866539D01*
X60108100Y-50662661D01*
X60068326Y-50462702D01*
X59990305Y-50274344D01*
X59877037Y-50104826D01*
X59732874Y-49960663D01*
X59563356Y-49847395D01*
X59374998Y-49769374D01*
X59175039Y-49729600D01*
X59112902Y-49729600D01*
X57718510Y-48335209D01*
X57729905Y-48318156D01*
X57807926Y-48129798D01*
X57847700Y-47929839D01*
X57847700Y-47725961D01*
X57807926Y-47526002D01*
X57759089Y-47408100D01*
X57779999Y-47408100D01*
X58621815Y-48249917D01*
X58615774Y-48264502D01*
X58576000Y-48464461D01*
X58576000Y-48668339D01*
X58615774Y-48868298D01*
X58693795Y-49056656D01*
X58807063Y-49226174D01*
X58951226Y-49370337D01*
X59120744Y-49483605D01*
X59309102Y-49561626D01*
X59509061Y-49601400D01*
X59712939Y-49601400D01*
X59912898Y-49561626D01*
X60101256Y-49483605D01*
X60270774Y-49370337D01*
X60414937Y-49226174D01*
X60528205Y-49056656D01*
X60583029Y-48924300D01*
X61359989Y-48924300D01*
X61403926Y-48968237D01*
X61573444Y-49081505D01*
X61761802Y-49159526D01*
X61961761Y-49199300D01*
X62165639Y-49199300D01*
X62365598Y-49159526D01*
X62553956Y-49081505D01*
X62723474Y-48968237D01*
X62867637Y-48824074D01*
X62980905Y-48654556D01*
X63058926Y-48466198D01*
X63098700Y-48266239D01*
X63098700Y-48062361D01*
X63058926Y-47862402D01*
X62980905Y-47674044D01*
X62867637Y-47504526D01*
X62723474Y-47360363D01*
X62553956Y-47247095D01*
X62365598Y-47169074D01*
X62165639Y-47129300D01*
X61961761Y-47129300D01*
X61761802Y-47169074D01*
X61573444Y-47247095D01*
X61403926Y-47360363D01*
X61359989Y-47404300D01*
X59925802Y-47404300D01*
X58854800Y-46333299D01*
X58854800Y-45230701D01*
X59516002Y-44569500D01*
X60205689Y-44569500D01*
X60249626Y-44613437D01*
X60419144Y-44726705D01*
X60607502Y-44804726D01*
X60807461Y-44844500D01*
X61011339Y-44844500D01*
X61211298Y-44804726D01*
X61399656Y-44726705D01*
X61569174Y-44613437D01*
X61713337Y-44469274D01*
X61826605Y-44299756D01*
X61904626Y-44111398D01*
X61944400Y-43911439D01*
X61944400Y-43707561D01*
X61904626Y-43507602D01*
X61826605Y-43319244D01*
X61713337Y-43149726D01*
X61569174Y-43005563D01*
X61399656Y-42892295D01*
X61211298Y-42814274D01*
X61011339Y-42774500D01*
X60807461Y-42774500D01*
X60607502Y-42814274D01*
X60419144Y-42892295D01*
X60249626Y-43005563D01*
X60205689Y-43049500D01*
X59516002Y-43049500D01*
X59481900Y-43015398D01*
X59481900Y-42953261D01*
X59442126Y-42753302D01*
X59364105Y-42564944D01*
X59250837Y-42395426D01*
X59106674Y-42251263D01*
X58937156Y-42137995D01*
X58748798Y-42059974D01*
X58548839Y-42020200D01*
X58344961Y-42020200D01*
X58145002Y-42059974D01*
X57956644Y-42137995D01*
X57787126Y-42251263D01*
X57642963Y-42395426D01*
X57529695Y-42564944D01*
X57451674Y-42753302D01*
X57411900Y-42953261D01*
X57411900Y-43157139D01*
X57451674Y-43357098D01*
X57529695Y-43545456D01*
X57642963Y-43714974D01*
X57787126Y-43859137D01*
X57956644Y-43972405D01*
X57961487Y-43974411D01*
X57583802Y-44352096D01*
X57554799Y-44375899D01*
X57499671Y-44443074D01*
X57459826Y-44491624D01*
X57447307Y-44515046D01*
X57389254Y-44623654D01*
X57345797Y-44766915D01*
X57334800Y-44878568D01*
X57334800Y-44878578D01*
X57331124Y-44915900D01*
X57334800Y-44953223D01*
X57334801Y-45888100D01*
X56338111Y-45888100D01*
X56294174Y-45844163D01*
X56124656Y-45730895D01*
X55936298Y-45652874D01*
X55736339Y-45613100D01*
X55532461Y-45613100D01*
X55332502Y-45652874D01*
X55144144Y-45730895D01*
X54974626Y-45844163D01*
X54830463Y-45988326D01*
X54717195Y-46157844D01*
X54639174Y-46346202D01*
X54599400Y-46546161D01*
X53974200Y-46546161D01*
X53974200Y-39851800D01*
X72467000Y-39851800D01*
X72467001Y-55195000D01*
M02*
