G04 #@! TF.GenerationSoftware,KiCad,Pcbnew,(5.1.5-0-10_14)*
G04 #@! TF.CreationDate,2020-02-28T08:34:56+01:00*
G04 #@! TF.ProjectId,CC1101_Module,43433131-3031-45f4-9d6f-64756c652e6b,rev?*
G04 #@! TF.SameCoordinates,Original*
G04 #@! TF.FileFunction,Soldermask,Top*
G04 #@! TF.FilePolarity,Negative*
%FSLAX46Y46*%
G04 Gerber Fmt 4.6, Leading zero omitted, Abs format (unit mm)*
G04 Created by KiCad (PCBNEW (5.1.5-0-10_14)) date 2020-02-28 08:34:56*
%MOMM*%
%LPD*%
G04 APERTURE LIST*
%ADD10C,0.100000*%
G04 APERTURE END LIST*
D10*
G36*
X54516721Y-54080174D02*
G01*
X54616995Y-54121709D01*
X54616996Y-54121710D01*
X54707242Y-54182010D01*
X54783990Y-54258758D01*
X54783991Y-54258760D01*
X54844291Y-54349005D01*
X54885826Y-54449279D01*
X54907000Y-54555730D01*
X54907000Y-54664270D01*
X54885826Y-54770721D01*
X54844291Y-54870995D01*
X54844290Y-54870996D01*
X54783990Y-54961242D01*
X54707242Y-55037990D01*
X54661812Y-55068345D01*
X54616995Y-55098291D01*
X54516721Y-55139826D01*
X54410270Y-55161000D01*
X54301730Y-55161000D01*
X54195279Y-55139826D01*
X54095005Y-55098291D01*
X54050188Y-55068345D01*
X54004758Y-55037990D01*
X53928010Y-54961242D01*
X53867710Y-54870996D01*
X53867709Y-54870995D01*
X53826174Y-54770721D01*
X53805000Y-54664270D01*
X53805000Y-54555730D01*
X53826174Y-54449279D01*
X53867709Y-54349005D01*
X53928009Y-54258760D01*
X53928010Y-54258758D01*
X54004758Y-54182010D01*
X54095004Y-54121710D01*
X54095005Y-54121709D01*
X54195279Y-54080174D01*
X54301730Y-54059000D01*
X54410270Y-54059000D01*
X54516721Y-54080174D01*
G37*
G36*
X62811000Y-54841000D02*
G01*
X61309000Y-54841000D01*
X61309000Y-53539000D01*
X62811000Y-53539000D01*
X62811000Y-54841000D01*
G37*
G36*
X60611000Y-54841000D02*
G01*
X59109000Y-54841000D01*
X59109000Y-53539000D01*
X60611000Y-53539000D01*
X60611000Y-54841000D01*
G37*
G36*
X62811000Y-53141000D02*
G01*
X61309000Y-53141000D01*
X61309000Y-51839000D01*
X62811000Y-51839000D01*
X62811000Y-53141000D01*
G37*
G36*
X60611000Y-53141000D02*
G01*
X59109000Y-53141000D01*
X59109000Y-51839000D01*
X60611000Y-51839000D01*
X60611000Y-53141000D01*
G37*
G36*
X54516721Y-52048174D02*
G01*
X54616995Y-52089709D01*
X54616996Y-52089710D01*
X54707242Y-52150010D01*
X54783990Y-52226758D01*
X54783991Y-52226760D01*
X54844291Y-52317005D01*
X54885826Y-52417279D01*
X54907000Y-52523730D01*
X54907000Y-52632270D01*
X54885826Y-52738721D01*
X54844291Y-52838995D01*
X54844290Y-52838996D01*
X54783990Y-52929242D01*
X54707242Y-53005990D01*
X54661812Y-53036345D01*
X54616995Y-53066291D01*
X54516721Y-53107826D01*
X54410270Y-53129000D01*
X54301730Y-53129000D01*
X54195279Y-53107826D01*
X54095005Y-53066291D01*
X54050188Y-53036345D01*
X54004758Y-53005990D01*
X53928010Y-52929242D01*
X53867710Y-52838996D01*
X53867709Y-52838995D01*
X53826174Y-52738721D01*
X53805000Y-52632270D01*
X53805000Y-52523730D01*
X53826174Y-52417279D01*
X53867709Y-52317005D01*
X53928009Y-52226760D01*
X53928010Y-52226758D01*
X54004758Y-52150010D01*
X54095004Y-52089710D01*
X54095005Y-52089709D01*
X54195279Y-52048174D01*
X54301730Y-52027000D01*
X54410270Y-52027000D01*
X54516721Y-52048174D01*
G37*
G36*
X57685938Y-51449716D02*
G01*
X57706557Y-51455971D01*
X57725553Y-51466124D01*
X57742208Y-51479792D01*
X57755876Y-51496447D01*
X57766029Y-51515443D01*
X57772284Y-51536062D01*
X57775000Y-51563640D01*
X57775000Y-52022360D01*
X57772284Y-52049938D01*
X57766029Y-52070557D01*
X57755876Y-52089553D01*
X57742208Y-52106208D01*
X57725553Y-52119876D01*
X57706557Y-52130029D01*
X57685938Y-52136284D01*
X57658360Y-52139000D01*
X57149640Y-52139000D01*
X57122062Y-52136284D01*
X57101443Y-52130029D01*
X57082447Y-52119876D01*
X57065792Y-52106208D01*
X57052124Y-52089553D01*
X57041971Y-52070557D01*
X57035716Y-52049938D01*
X57033000Y-52022360D01*
X57033000Y-51563640D01*
X57035716Y-51536062D01*
X57041971Y-51515443D01*
X57052124Y-51496447D01*
X57065792Y-51479792D01*
X57082447Y-51466124D01*
X57101443Y-51455971D01*
X57122062Y-51449716D01*
X57149640Y-51447000D01*
X57658360Y-51447000D01*
X57685938Y-51449716D01*
G37*
G36*
X57685938Y-50479716D02*
G01*
X57706557Y-50485971D01*
X57725553Y-50496124D01*
X57742208Y-50509792D01*
X57755876Y-50526447D01*
X57766029Y-50545443D01*
X57772284Y-50566062D01*
X57775000Y-50593640D01*
X57775000Y-51052360D01*
X57772284Y-51079938D01*
X57766029Y-51100557D01*
X57755876Y-51119553D01*
X57742208Y-51136208D01*
X57725553Y-51149876D01*
X57706557Y-51160029D01*
X57685938Y-51166284D01*
X57658360Y-51169000D01*
X57149640Y-51169000D01*
X57122062Y-51166284D01*
X57101443Y-51160029D01*
X57082447Y-51149876D01*
X57065792Y-51136208D01*
X57052124Y-51119553D01*
X57041971Y-51100557D01*
X57035716Y-51079938D01*
X57033000Y-51052360D01*
X57033000Y-50593640D01*
X57035716Y-50566062D01*
X57041971Y-50545443D01*
X57052124Y-50526447D01*
X57065792Y-50509792D01*
X57082447Y-50496124D01*
X57101443Y-50485971D01*
X57122062Y-50479716D01*
X57149640Y-50477000D01*
X57658360Y-50477000D01*
X57685938Y-50479716D01*
G37*
G36*
X54516721Y-50016174D02*
G01*
X54616995Y-50057709D01*
X54616996Y-50057710D01*
X54707242Y-50118010D01*
X54783990Y-50194758D01*
X54783991Y-50194760D01*
X54844291Y-50285005D01*
X54885826Y-50385279D01*
X54907000Y-50491730D01*
X54907000Y-50600270D01*
X54885826Y-50706721D01*
X54844291Y-50806995D01*
X54844290Y-50806996D01*
X54783990Y-50897242D01*
X54707242Y-50973990D01*
X54674301Y-50996000D01*
X54616995Y-51034291D01*
X54516721Y-51075826D01*
X54410270Y-51097000D01*
X54301730Y-51097000D01*
X54195279Y-51075826D01*
X54095005Y-51034291D01*
X54037699Y-50996000D01*
X54004758Y-50973990D01*
X53928010Y-50897242D01*
X53867710Y-50806996D01*
X53867709Y-50806995D01*
X53826174Y-50706721D01*
X53805000Y-50600270D01*
X53805000Y-50491730D01*
X53826174Y-50385279D01*
X53867709Y-50285005D01*
X53928009Y-50194760D01*
X53928010Y-50194758D01*
X54004758Y-50118010D01*
X54095004Y-50057710D01*
X54095005Y-50057709D01*
X54195279Y-50016174D01*
X54301730Y-49995000D01*
X54410270Y-49995000D01*
X54516721Y-50016174D01*
G37*
G36*
X65499238Y-49453816D02*
G01*
X65519857Y-49460071D01*
X65538853Y-49470224D01*
X65555508Y-49483892D01*
X65569176Y-49500547D01*
X65579329Y-49519543D01*
X65585584Y-49540162D01*
X65588300Y-49567740D01*
X65588300Y-50076460D01*
X65585584Y-50104038D01*
X65579329Y-50124657D01*
X65569176Y-50143653D01*
X65555508Y-50160308D01*
X65538853Y-50173976D01*
X65519857Y-50184129D01*
X65499238Y-50190384D01*
X65471660Y-50193100D01*
X65012940Y-50193100D01*
X64985362Y-50190384D01*
X64964743Y-50184129D01*
X64945747Y-50173976D01*
X64929092Y-50160308D01*
X64915424Y-50143653D01*
X64905271Y-50124657D01*
X64899016Y-50104038D01*
X64896300Y-50076460D01*
X64896300Y-49567740D01*
X64899016Y-49540162D01*
X64905271Y-49519543D01*
X64915424Y-49500547D01*
X64929092Y-49483892D01*
X64945747Y-49470224D01*
X64964743Y-49460071D01*
X64985362Y-49453816D01*
X65012940Y-49451100D01*
X65471660Y-49451100D01*
X65499238Y-49453816D01*
G37*
G36*
X64529238Y-49453816D02*
G01*
X64549857Y-49460071D01*
X64568853Y-49470224D01*
X64585508Y-49483892D01*
X64599176Y-49500547D01*
X64609329Y-49519543D01*
X64615584Y-49540162D01*
X64618300Y-49567740D01*
X64618300Y-50076460D01*
X64615584Y-50104038D01*
X64609329Y-50124657D01*
X64599176Y-50143653D01*
X64585508Y-50160308D01*
X64568853Y-50173976D01*
X64549857Y-50184129D01*
X64529238Y-50190384D01*
X64501660Y-50193100D01*
X64042940Y-50193100D01*
X64015362Y-50190384D01*
X63994743Y-50184129D01*
X63975747Y-50173976D01*
X63959092Y-50160308D01*
X63945424Y-50143653D01*
X63935271Y-50124657D01*
X63929016Y-50104038D01*
X63926300Y-50076460D01*
X63926300Y-49567740D01*
X63929016Y-49540162D01*
X63935271Y-49519543D01*
X63945424Y-49500547D01*
X63959092Y-49483892D01*
X63975747Y-49470224D01*
X63994743Y-49460071D01*
X64015362Y-49453816D01*
X64042940Y-49451100D01*
X64501660Y-49451100D01*
X64529238Y-49453816D01*
G37*
G36*
X54516721Y-47984174D02*
G01*
X54616995Y-48025709D01*
X54661812Y-48055655D01*
X54707242Y-48086010D01*
X54783990Y-48162758D01*
X54783991Y-48162760D01*
X54844291Y-48253005D01*
X54885826Y-48353279D01*
X54907000Y-48459730D01*
X54907000Y-48568270D01*
X54885826Y-48674721D01*
X54844291Y-48774995D01*
X54844290Y-48774996D01*
X54783990Y-48865242D01*
X54707242Y-48941990D01*
X54661812Y-48972345D01*
X54616995Y-49002291D01*
X54516721Y-49043826D01*
X54410270Y-49065000D01*
X54301730Y-49065000D01*
X54195279Y-49043826D01*
X54095005Y-49002291D01*
X54050188Y-48972345D01*
X54004758Y-48941990D01*
X53928010Y-48865242D01*
X53867710Y-48774996D01*
X53867709Y-48774995D01*
X53826174Y-48674721D01*
X53805000Y-48568270D01*
X53805000Y-48459730D01*
X53826174Y-48353279D01*
X53867709Y-48253005D01*
X53928009Y-48162760D01*
X53928010Y-48162758D01*
X54004758Y-48086010D01*
X54050188Y-48055655D01*
X54095005Y-48025709D01*
X54195279Y-47984174D01*
X54301730Y-47963000D01*
X54410270Y-47963000D01*
X54516721Y-47984174D01*
G37*
G36*
X64529238Y-48285416D02*
G01*
X64549857Y-48291671D01*
X64568853Y-48301824D01*
X64585508Y-48315492D01*
X64599176Y-48332147D01*
X64609329Y-48351143D01*
X64615584Y-48371762D01*
X64618300Y-48399340D01*
X64618300Y-48908060D01*
X64615584Y-48935638D01*
X64609329Y-48956257D01*
X64599176Y-48975253D01*
X64585508Y-48991908D01*
X64568853Y-49005576D01*
X64549857Y-49015729D01*
X64529238Y-49021984D01*
X64501660Y-49024700D01*
X64042940Y-49024700D01*
X64015362Y-49021984D01*
X63994743Y-49015729D01*
X63975747Y-49005576D01*
X63959092Y-48991908D01*
X63945424Y-48975253D01*
X63935271Y-48956257D01*
X63929016Y-48935638D01*
X63926300Y-48908060D01*
X63926300Y-48399340D01*
X63929016Y-48371762D01*
X63935271Y-48351143D01*
X63945424Y-48332147D01*
X63959092Y-48315492D01*
X63975747Y-48301824D01*
X63994743Y-48291671D01*
X64015362Y-48285416D01*
X64042940Y-48282700D01*
X64501660Y-48282700D01*
X64529238Y-48285416D01*
G37*
G36*
X65499238Y-48285416D02*
G01*
X65519857Y-48291671D01*
X65538853Y-48301824D01*
X65555508Y-48315492D01*
X65569176Y-48332147D01*
X65579329Y-48351143D01*
X65585584Y-48371762D01*
X65588300Y-48399340D01*
X65588300Y-48908060D01*
X65585584Y-48935638D01*
X65579329Y-48956257D01*
X65569176Y-48975253D01*
X65555508Y-48991908D01*
X65538853Y-49005576D01*
X65519857Y-49015729D01*
X65499238Y-49021984D01*
X65471660Y-49024700D01*
X65012940Y-49024700D01*
X64985362Y-49021984D01*
X64964743Y-49015729D01*
X64945747Y-49005576D01*
X64929092Y-48991908D01*
X64915424Y-48975253D01*
X64905271Y-48956257D01*
X64899016Y-48935638D01*
X64896300Y-48908060D01*
X64896300Y-48399340D01*
X64899016Y-48371762D01*
X64905271Y-48351143D01*
X64915424Y-48332147D01*
X64929092Y-48315492D01*
X64945747Y-48301824D01*
X64964743Y-48291671D01*
X64985362Y-48285416D01*
X65012940Y-48282700D01*
X65471660Y-48282700D01*
X65499238Y-48285416D01*
G37*
G36*
X70512938Y-47893716D02*
G01*
X70533557Y-47899971D01*
X70552553Y-47910124D01*
X70569208Y-47923792D01*
X70582876Y-47940447D01*
X70593029Y-47959443D01*
X70599284Y-47980062D01*
X70602000Y-48007640D01*
X70602000Y-48466360D01*
X70599284Y-48493938D01*
X70593029Y-48514557D01*
X70582876Y-48533553D01*
X70569208Y-48550208D01*
X70552553Y-48563876D01*
X70533557Y-48574029D01*
X70512938Y-48580284D01*
X70485360Y-48583000D01*
X69976640Y-48583000D01*
X69949062Y-48580284D01*
X69928443Y-48574029D01*
X69909447Y-48563876D01*
X69892792Y-48550208D01*
X69879124Y-48533553D01*
X69868971Y-48514557D01*
X69862716Y-48493938D01*
X69860000Y-48466360D01*
X69860000Y-48007640D01*
X69862716Y-47980062D01*
X69868971Y-47959443D01*
X69879124Y-47940447D01*
X69892792Y-47923792D01*
X69909447Y-47910124D01*
X69928443Y-47899971D01*
X69949062Y-47893716D01*
X69976640Y-47891000D01*
X70485360Y-47891000D01*
X70512938Y-47893716D01*
G37*
G36*
X71528938Y-47893716D02*
G01*
X71549557Y-47899971D01*
X71568553Y-47910124D01*
X71585208Y-47923792D01*
X71598876Y-47940447D01*
X71609029Y-47959443D01*
X71615284Y-47980062D01*
X71618000Y-48007640D01*
X71618000Y-48466360D01*
X71615284Y-48493938D01*
X71609029Y-48514557D01*
X71598876Y-48533553D01*
X71585208Y-48550208D01*
X71568553Y-48563876D01*
X71549557Y-48574029D01*
X71528938Y-48580284D01*
X71501360Y-48583000D01*
X70992640Y-48583000D01*
X70965062Y-48580284D01*
X70944443Y-48574029D01*
X70925447Y-48563876D01*
X70908792Y-48550208D01*
X70895124Y-48533553D01*
X70884971Y-48514557D01*
X70878716Y-48493938D01*
X70876000Y-48466360D01*
X70876000Y-48007640D01*
X70878716Y-47980062D01*
X70884971Y-47959443D01*
X70895124Y-47940447D01*
X70908792Y-47923792D01*
X70925447Y-47910124D01*
X70944443Y-47899971D01*
X70965062Y-47893716D01*
X70992640Y-47891000D01*
X71501360Y-47891000D01*
X71528938Y-47893716D01*
G37*
G36*
X68458338Y-47282116D02*
G01*
X68478957Y-47288371D01*
X68497953Y-47298524D01*
X68514608Y-47312192D01*
X68528276Y-47328847D01*
X68538429Y-47347843D01*
X68544684Y-47368462D01*
X68547400Y-47396040D01*
X68547400Y-47904760D01*
X68544684Y-47932338D01*
X68538429Y-47952957D01*
X68528276Y-47971953D01*
X68514608Y-47988608D01*
X68497953Y-48002276D01*
X68478957Y-48012429D01*
X68458338Y-48018684D01*
X68430760Y-48021400D01*
X67972040Y-48021400D01*
X67944462Y-48018684D01*
X67923843Y-48012429D01*
X67904847Y-48002276D01*
X67888192Y-47988608D01*
X67874524Y-47971953D01*
X67864371Y-47952957D01*
X67858116Y-47932338D01*
X67855400Y-47904760D01*
X67855400Y-47396040D01*
X67858116Y-47368462D01*
X67864371Y-47347843D01*
X67874524Y-47328847D01*
X67888192Y-47312192D01*
X67904847Y-47298524D01*
X67923843Y-47288371D01*
X67944462Y-47282116D01*
X67972040Y-47279400D01*
X68430760Y-47279400D01*
X68458338Y-47282116D01*
G37*
G36*
X65507138Y-47282116D02*
G01*
X65527757Y-47288371D01*
X65546753Y-47298524D01*
X65563408Y-47312192D01*
X65577076Y-47328847D01*
X65587229Y-47347843D01*
X65593484Y-47368462D01*
X65596200Y-47396040D01*
X65596200Y-47904760D01*
X65593484Y-47932338D01*
X65587229Y-47952957D01*
X65577076Y-47971953D01*
X65563408Y-47988608D01*
X65546753Y-48002276D01*
X65527757Y-48012429D01*
X65507138Y-48018684D01*
X65479560Y-48021400D01*
X65020840Y-48021400D01*
X64993262Y-48018684D01*
X64972643Y-48012429D01*
X64953647Y-48002276D01*
X64936992Y-47988608D01*
X64923324Y-47971953D01*
X64913171Y-47952957D01*
X64906916Y-47932338D01*
X64904200Y-47904760D01*
X64904200Y-47396040D01*
X64906916Y-47368462D01*
X64913171Y-47347843D01*
X64923324Y-47328847D01*
X64936992Y-47312192D01*
X64953647Y-47298524D01*
X64972643Y-47288371D01*
X64993262Y-47282116D01*
X65020840Y-47279400D01*
X65479560Y-47279400D01*
X65507138Y-47282116D01*
G37*
G36*
X66477138Y-47282116D02*
G01*
X66497757Y-47288371D01*
X66516753Y-47298524D01*
X66533408Y-47312192D01*
X66547076Y-47328847D01*
X66557229Y-47347843D01*
X66563484Y-47368462D01*
X66566200Y-47396040D01*
X66566200Y-47904760D01*
X66563484Y-47932338D01*
X66557229Y-47952957D01*
X66547076Y-47971953D01*
X66533408Y-47988608D01*
X66516753Y-48002276D01*
X66497757Y-48012429D01*
X66477138Y-48018684D01*
X66449560Y-48021400D01*
X65990840Y-48021400D01*
X65963262Y-48018684D01*
X65942643Y-48012429D01*
X65923647Y-48002276D01*
X65906992Y-47988608D01*
X65893324Y-47971953D01*
X65883171Y-47952957D01*
X65876916Y-47932338D01*
X65874200Y-47904760D01*
X65874200Y-47396040D01*
X65876916Y-47368462D01*
X65883171Y-47347843D01*
X65893324Y-47328847D01*
X65906992Y-47312192D01*
X65923647Y-47298524D01*
X65942643Y-47288371D01*
X65963262Y-47282116D01*
X65990840Y-47279400D01*
X66449560Y-47279400D01*
X66477138Y-47282116D01*
G37*
G36*
X67488338Y-47282116D02*
G01*
X67508957Y-47288371D01*
X67527953Y-47298524D01*
X67544608Y-47312192D01*
X67558276Y-47328847D01*
X67568429Y-47347843D01*
X67574684Y-47368462D01*
X67577400Y-47396040D01*
X67577400Y-47904760D01*
X67574684Y-47932338D01*
X67568429Y-47952957D01*
X67558276Y-47971953D01*
X67544608Y-47988608D01*
X67527953Y-48002276D01*
X67508957Y-48012429D01*
X67488338Y-48018684D01*
X67460760Y-48021400D01*
X67002040Y-48021400D01*
X66974462Y-48018684D01*
X66953843Y-48012429D01*
X66934847Y-48002276D01*
X66918192Y-47988608D01*
X66904524Y-47971953D01*
X66894371Y-47952957D01*
X66888116Y-47932338D01*
X66885400Y-47904760D01*
X66885400Y-47396040D01*
X66888116Y-47368462D01*
X66894371Y-47347843D01*
X66904524Y-47328847D01*
X66918192Y-47312192D01*
X66934847Y-47298524D01*
X66953843Y-47288371D01*
X66974462Y-47282116D01*
X67002040Y-47279400D01*
X67460760Y-47279400D01*
X67488338Y-47282116D01*
G37*
G36*
X59880400Y-44490201D02*
G01*
X59882802Y-44514587D01*
X59889915Y-44538036D01*
X59901466Y-44559647D01*
X59917011Y-44578589D01*
X59935953Y-44594134D01*
X59957564Y-44605685D01*
X59981013Y-44612798D01*
X60005399Y-44615200D01*
X60885400Y-44615200D01*
X60885400Y-46977200D01*
X60005399Y-46977200D01*
X59981013Y-46979602D01*
X59957564Y-46986715D01*
X59935953Y-46998266D01*
X59917011Y-47013811D01*
X59901466Y-47032753D01*
X59889915Y-47054364D01*
X59882802Y-47077813D01*
X59880400Y-47102199D01*
X59880400Y-47982200D01*
X57518400Y-47982200D01*
X57518400Y-47102199D01*
X57515998Y-47077813D01*
X57508885Y-47054364D01*
X57497334Y-47032753D01*
X57481789Y-47013811D01*
X57462847Y-46998266D01*
X57441236Y-46986715D01*
X57417787Y-46979602D01*
X57393401Y-46977200D01*
X56513400Y-46977200D01*
X56513400Y-44615200D01*
X57393401Y-44615200D01*
X57417787Y-44612798D01*
X57441236Y-44605685D01*
X57462847Y-44594134D01*
X57481789Y-44578589D01*
X57497334Y-44559647D01*
X57508885Y-44538036D01*
X57515998Y-44514587D01*
X57518400Y-44490201D01*
X57518400Y-43610200D01*
X59880400Y-43610200D01*
X59880400Y-44490201D01*
G37*
G36*
X71528938Y-46923716D02*
G01*
X71549557Y-46929971D01*
X71568553Y-46940124D01*
X71585208Y-46953792D01*
X71598876Y-46970447D01*
X71609029Y-46989443D01*
X71615284Y-47010062D01*
X71618000Y-47037640D01*
X71618000Y-47496360D01*
X71615284Y-47523938D01*
X71609029Y-47544557D01*
X71598876Y-47563553D01*
X71585208Y-47580208D01*
X71568553Y-47593876D01*
X71549557Y-47604029D01*
X71528938Y-47610284D01*
X71501360Y-47613000D01*
X70992640Y-47613000D01*
X70965062Y-47610284D01*
X70944443Y-47604029D01*
X70925447Y-47593876D01*
X70908792Y-47580208D01*
X70895124Y-47563553D01*
X70884971Y-47544557D01*
X70878716Y-47523938D01*
X70876000Y-47496360D01*
X70876000Y-47037640D01*
X70878716Y-47010062D01*
X70884971Y-46989443D01*
X70895124Y-46970447D01*
X70908792Y-46953792D01*
X70925447Y-46940124D01*
X70944443Y-46929971D01*
X70965062Y-46923716D01*
X70992640Y-46921000D01*
X71501360Y-46921000D01*
X71528938Y-46923716D01*
G37*
G36*
X70512938Y-46923716D02*
G01*
X70533557Y-46929971D01*
X70552553Y-46940124D01*
X70569208Y-46953792D01*
X70582876Y-46970447D01*
X70593029Y-46989443D01*
X70599284Y-47010062D01*
X70602000Y-47037640D01*
X70602000Y-47496360D01*
X70599284Y-47523938D01*
X70593029Y-47544557D01*
X70582876Y-47563553D01*
X70569208Y-47580208D01*
X70552553Y-47593876D01*
X70533557Y-47604029D01*
X70512938Y-47610284D01*
X70485360Y-47613000D01*
X69976640Y-47613000D01*
X69949062Y-47610284D01*
X69928443Y-47604029D01*
X69909447Y-47593876D01*
X69892792Y-47580208D01*
X69879124Y-47563553D01*
X69868971Y-47544557D01*
X69862716Y-47523938D01*
X69860000Y-47496360D01*
X69860000Y-47037640D01*
X69862716Y-47010062D01*
X69868971Y-46989443D01*
X69879124Y-46970447D01*
X69892792Y-46953792D01*
X69909447Y-46940124D01*
X69928443Y-46929971D01*
X69949062Y-46923716D01*
X69976640Y-46921000D01*
X70485360Y-46921000D01*
X70512938Y-46923716D01*
G37*
G36*
X64188338Y-46903116D02*
G01*
X64208957Y-46909371D01*
X64227953Y-46919524D01*
X64244608Y-46933192D01*
X64258276Y-46949847D01*
X64268429Y-46968843D01*
X64274684Y-46989462D01*
X64277400Y-47017040D01*
X64277400Y-47475760D01*
X64274684Y-47503338D01*
X64268429Y-47523957D01*
X64258276Y-47542953D01*
X64244608Y-47559608D01*
X64227953Y-47573276D01*
X64208957Y-47583429D01*
X64188338Y-47589684D01*
X64160760Y-47592400D01*
X63652040Y-47592400D01*
X63624462Y-47589684D01*
X63603843Y-47583429D01*
X63584847Y-47573276D01*
X63568192Y-47559608D01*
X63554524Y-47542953D01*
X63544371Y-47523957D01*
X63538116Y-47503338D01*
X63535400Y-47475760D01*
X63535400Y-47017040D01*
X63538116Y-46989462D01*
X63544371Y-46968843D01*
X63554524Y-46949847D01*
X63568192Y-46933192D01*
X63584847Y-46919524D01*
X63603843Y-46909371D01*
X63624462Y-46903116D01*
X63652040Y-46900400D01*
X64160760Y-46900400D01*
X64188338Y-46903116D01*
G37*
G36*
X63073538Y-46570916D02*
G01*
X63094157Y-46577171D01*
X63113153Y-46587324D01*
X63129808Y-46600992D01*
X63143476Y-46617647D01*
X63153629Y-46636643D01*
X63159884Y-46657262D01*
X63162600Y-46684840D01*
X63162600Y-47193560D01*
X63159884Y-47221138D01*
X63153629Y-47241757D01*
X63143476Y-47260753D01*
X63129808Y-47277408D01*
X63113153Y-47291076D01*
X63094157Y-47301229D01*
X63073538Y-47307484D01*
X63045960Y-47310200D01*
X62587240Y-47310200D01*
X62559662Y-47307484D01*
X62539043Y-47301229D01*
X62520047Y-47291076D01*
X62503392Y-47277408D01*
X62489724Y-47260753D01*
X62479571Y-47241757D01*
X62473316Y-47221138D01*
X62470600Y-47193560D01*
X62470600Y-46684840D01*
X62473316Y-46657262D01*
X62479571Y-46636643D01*
X62489724Y-46617647D01*
X62503392Y-46600992D01*
X62520047Y-46587324D01*
X62539043Y-46577171D01*
X62559662Y-46570916D01*
X62587240Y-46568200D01*
X63045960Y-46568200D01*
X63073538Y-46570916D01*
G37*
G36*
X62103538Y-46570916D02*
G01*
X62124157Y-46577171D01*
X62143153Y-46587324D01*
X62159808Y-46600992D01*
X62173476Y-46617647D01*
X62183629Y-46636643D01*
X62189884Y-46657262D01*
X62192600Y-46684840D01*
X62192600Y-47193560D01*
X62189884Y-47221138D01*
X62183629Y-47241757D01*
X62173476Y-47260753D01*
X62159808Y-47277408D01*
X62143153Y-47291076D01*
X62124157Y-47301229D01*
X62103538Y-47307484D01*
X62075960Y-47310200D01*
X61617240Y-47310200D01*
X61589662Y-47307484D01*
X61569043Y-47301229D01*
X61550047Y-47291076D01*
X61533392Y-47277408D01*
X61519724Y-47260753D01*
X61509571Y-47241757D01*
X61503316Y-47221138D01*
X61500600Y-47193560D01*
X61500600Y-46684840D01*
X61503316Y-46657262D01*
X61509571Y-46636643D01*
X61519724Y-46617647D01*
X61533392Y-46600992D01*
X61550047Y-46587324D01*
X61569043Y-46577171D01*
X61589662Y-46570916D01*
X61617240Y-46568200D01*
X62075960Y-46568200D01*
X62103538Y-46570916D01*
G37*
G36*
X54516721Y-45952174D02*
G01*
X54616995Y-45993709D01*
X54637314Y-46007286D01*
X54707242Y-46054010D01*
X54783990Y-46130758D01*
X54783991Y-46130760D01*
X54844291Y-46221005D01*
X54885826Y-46321279D01*
X54907000Y-46427730D01*
X54907000Y-46536270D01*
X54885826Y-46642721D01*
X54844291Y-46742995D01*
X54844290Y-46742996D01*
X54783990Y-46833242D01*
X54707242Y-46909990D01*
X54692973Y-46919524D01*
X54616995Y-46970291D01*
X54516721Y-47011826D01*
X54410270Y-47033000D01*
X54301730Y-47033000D01*
X54195279Y-47011826D01*
X54095005Y-46970291D01*
X54019027Y-46919524D01*
X54004758Y-46909990D01*
X53928010Y-46833242D01*
X53867710Y-46742996D01*
X53867709Y-46742995D01*
X53826174Y-46642721D01*
X53805000Y-46536270D01*
X53805000Y-46427730D01*
X53826174Y-46321279D01*
X53867709Y-46221005D01*
X53928009Y-46130760D01*
X53928010Y-46130758D01*
X54004758Y-46054010D01*
X54074686Y-46007286D01*
X54095005Y-45993709D01*
X54195279Y-45952174D01*
X54301730Y-45931000D01*
X54410270Y-45931000D01*
X54516721Y-45952174D01*
G37*
G36*
X67493138Y-46240716D02*
G01*
X67513757Y-46246971D01*
X67532753Y-46257124D01*
X67549408Y-46270792D01*
X67563076Y-46287447D01*
X67573229Y-46306443D01*
X67579484Y-46327062D01*
X67582200Y-46354640D01*
X67582200Y-46863360D01*
X67579484Y-46890938D01*
X67573229Y-46911557D01*
X67563076Y-46930553D01*
X67549408Y-46947208D01*
X67532753Y-46960876D01*
X67513757Y-46971029D01*
X67493138Y-46977284D01*
X67465560Y-46980000D01*
X67006840Y-46980000D01*
X66979262Y-46977284D01*
X66958643Y-46971029D01*
X66939647Y-46960876D01*
X66922992Y-46947208D01*
X66909324Y-46930553D01*
X66899171Y-46911557D01*
X66892916Y-46890938D01*
X66890200Y-46863360D01*
X66890200Y-46354640D01*
X66892916Y-46327062D01*
X66899171Y-46306443D01*
X66909324Y-46287447D01*
X66922992Y-46270792D01*
X66939647Y-46257124D01*
X66958643Y-46246971D01*
X66979262Y-46240716D01*
X67006840Y-46238000D01*
X67465560Y-46238000D01*
X67493138Y-46240716D01*
G37*
G36*
X66523138Y-46240716D02*
G01*
X66543757Y-46246971D01*
X66562753Y-46257124D01*
X66579408Y-46270792D01*
X66593076Y-46287447D01*
X66603229Y-46306443D01*
X66609484Y-46327062D01*
X66612200Y-46354640D01*
X66612200Y-46863360D01*
X66609484Y-46890938D01*
X66603229Y-46911557D01*
X66593076Y-46930553D01*
X66579408Y-46947208D01*
X66562753Y-46960876D01*
X66543757Y-46971029D01*
X66523138Y-46977284D01*
X66495560Y-46980000D01*
X66036840Y-46980000D01*
X66009262Y-46977284D01*
X65988643Y-46971029D01*
X65969647Y-46960876D01*
X65952992Y-46947208D01*
X65939324Y-46930553D01*
X65929171Y-46911557D01*
X65922916Y-46890938D01*
X65920200Y-46863360D01*
X65920200Y-46354640D01*
X65922916Y-46327062D01*
X65929171Y-46306443D01*
X65939324Y-46287447D01*
X65952992Y-46270792D01*
X65969647Y-46257124D01*
X65988643Y-46246971D01*
X66009262Y-46240716D01*
X66036840Y-46238000D01*
X66495560Y-46238000D01*
X66523138Y-46240716D01*
G37*
G36*
X68478938Y-46240716D02*
G01*
X68499557Y-46246971D01*
X68518553Y-46257124D01*
X68535208Y-46270792D01*
X68548876Y-46287447D01*
X68559029Y-46306443D01*
X68565284Y-46327062D01*
X68568000Y-46354640D01*
X68568000Y-46863360D01*
X68565284Y-46890938D01*
X68559029Y-46911557D01*
X68548876Y-46930553D01*
X68535208Y-46947208D01*
X68518553Y-46960876D01*
X68499557Y-46971029D01*
X68478938Y-46977284D01*
X68451360Y-46980000D01*
X67992640Y-46980000D01*
X67965062Y-46977284D01*
X67944443Y-46971029D01*
X67925447Y-46960876D01*
X67908792Y-46947208D01*
X67895124Y-46930553D01*
X67884971Y-46911557D01*
X67878716Y-46890938D01*
X67876000Y-46863360D01*
X67876000Y-46354640D01*
X67878716Y-46327062D01*
X67884971Y-46306443D01*
X67895124Y-46287447D01*
X67908792Y-46270792D01*
X67925447Y-46257124D01*
X67944443Y-46246971D01*
X67965062Y-46240716D01*
X67992640Y-46238000D01*
X68451360Y-46238000D01*
X68478938Y-46240716D01*
G37*
G36*
X69448938Y-46240716D02*
G01*
X69469557Y-46246971D01*
X69488553Y-46257124D01*
X69505208Y-46270792D01*
X69518876Y-46287447D01*
X69529029Y-46306443D01*
X69535284Y-46327062D01*
X69538000Y-46354640D01*
X69538000Y-46863360D01*
X69535284Y-46890938D01*
X69529029Y-46911557D01*
X69518876Y-46930553D01*
X69505208Y-46947208D01*
X69488553Y-46960876D01*
X69469557Y-46971029D01*
X69448938Y-46977284D01*
X69421360Y-46980000D01*
X68962640Y-46980000D01*
X68935062Y-46977284D01*
X68914443Y-46971029D01*
X68895447Y-46960876D01*
X68878792Y-46947208D01*
X68865124Y-46930553D01*
X68854971Y-46911557D01*
X68848716Y-46890938D01*
X68846000Y-46863360D01*
X68846000Y-46354640D01*
X68848716Y-46327062D01*
X68854971Y-46306443D01*
X68865124Y-46287447D01*
X68878792Y-46270792D01*
X68895447Y-46257124D01*
X68914443Y-46246971D01*
X68935062Y-46240716D01*
X68962640Y-46238000D01*
X69421360Y-46238000D01*
X69448938Y-46240716D01*
G37*
G36*
X64188338Y-45933116D02*
G01*
X64208957Y-45939371D01*
X64227953Y-45949524D01*
X64244608Y-45963192D01*
X64258276Y-45979847D01*
X64268429Y-45998843D01*
X64274684Y-46019462D01*
X64277400Y-46047040D01*
X64277400Y-46505760D01*
X64274684Y-46533338D01*
X64268429Y-46553957D01*
X64258276Y-46572953D01*
X64244608Y-46589608D01*
X64227953Y-46603276D01*
X64208957Y-46613429D01*
X64188338Y-46619684D01*
X64160760Y-46622400D01*
X63652040Y-46622400D01*
X63624462Y-46619684D01*
X63603843Y-46613429D01*
X63584847Y-46603276D01*
X63568192Y-46589608D01*
X63554524Y-46572953D01*
X63544371Y-46553957D01*
X63538116Y-46533338D01*
X63535400Y-46505760D01*
X63535400Y-46047040D01*
X63538116Y-46019462D01*
X63544371Y-45998843D01*
X63554524Y-45979847D01*
X63568192Y-45963192D01*
X63584847Y-45949524D01*
X63603843Y-45939371D01*
X63624462Y-45933116D01*
X63652040Y-45930400D01*
X64160760Y-45930400D01*
X64188338Y-45933116D01*
G37*
G36*
X70485538Y-45859716D02*
G01*
X70506157Y-45865971D01*
X70525153Y-45876124D01*
X70541808Y-45889792D01*
X70555476Y-45906447D01*
X70565629Y-45925443D01*
X70571884Y-45946062D01*
X70574600Y-45973640D01*
X70574600Y-46482360D01*
X70571884Y-46509938D01*
X70565629Y-46530557D01*
X70555476Y-46549553D01*
X70541808Y-46566208D01*
X70525153Y-46579876D01*
X70506157Y-46590029D01*
X70485538Y-46596284D01*
X70457960Y-46599000D01*
X69999240Y-46599000D01*
X69971662Y-46596284D01*
X69951043Y-46590029D01*
X69932047Y-46579876D01*
X69915392Y-46566208D01*
X69901724Y-46549553D01*
X69891571Y-46530557D01*
X69885316Y-46509938D01*
X69882600Y-46482360D01*
X69882600Y-45973640D01*
X69885316Y-45946062D01*
X69891571Y-45925443D01*
X69901724Y-45906447D01*
X69915392Y-45889792D01*
X69932047Y-45876124D01*
X69951043Y-45865971D01*
X69971662Y-45859716D01*
X69999240Y-45857000D01*
X70457960Y-45857000D01*
X70485538Y-45859716D01*
G37*
G36*
X71455538Y-45859716D02*
G01*
X71476157Y-45865971D01*
X71495153Y-45876124D01*
X71511808Y-45889792D01*
X71525476Y-45906447D01*
X71535629Y-45925443D01*
X71541884Y-45946062D01*
X71544600Y-45973640D01*
X71544600Y-46482360D01*
X71541884Y-46509938D01*
X71535629Y-46530557D01*
X71525476Y-46549553D01*
X71511808Y-46566208D01*
X71495153Y-46579876D01*
X71476157Y-46590029D01*
X71455538Y-46596284D01*
X71427960Y-46599000D01*
X70969240Y-46599000D01*
X70941662Y-46596284D01*
X70921043Y-46590029D01*
X70902047Y-46579876D01*
X70885392Y-46566208D01*
X70871724Y-46549553D01*
X70861571Y-46530557D01*
X70855316Y-46509938D01*
X70852600Y-46482360D01*
X70852600Y-45973640D01*
X70855316Y-45946062D01*
X70861571Y-45925443D01*
X70871724Y-45906447D01*
X70885392Y-45889792D01*
X70902047Y-45876124D01*
X70921043Y-45865971D01*
X70941662Y-45859716D01*
X70969240Y-45857000D01*
X71427960Y-45857000D01*
X71455538Y-45859716D01*
G37*
G36*
X65557938Y-45199316D02*
G01*
X65578557Y-45205571D01*
X65597553Y-45215724D01*
X65614208Y-45229392D01*
X65627876Y-45246047D01*
X65638029Y-45265043D01*
X65644284Y-45285662D01*
X65647000Y-45313240D01*
X65647000Y-45821960D01*
X65644284Y-45849538D01*
X65638029Y-45870157D01*
X65627876Y-45889153D01*
X65614208Y-45905808D01*
X65597553Y-45919476D01*
X65578557Y-45929629D01*
X65557938Y-45935884D01*
X65530360Y-45938600D01*
X65071640Y-45938600D01*
X65044062Y-45935884D01*
X65023443Y-45929629D01*
X65004447Y-45919476D01*
X64987792Y-45905808D01*
X64974124Y-45889153D01*
X64963971Y-45870157D01*
X64957716Y-45849538D01*
X64955000Y-45821960D01*
X64955000Y-45313240D01*
X64957716Y-45285662D01*
X64963971Y-45265043D01*
X64974124Y-45246047D01*
X64987792Y-45229392D01*
X65004447Y-45215724D01*
X65023443Y-45205571D01*
X65044062Y-45199316D01*
X65071640Y-45196600D01*
X65530360Y-45196600D01*
X65557938Y-45199316D01*
G37*
G36*
X66527938Y-45199316D02*
G01*
X66548557Y-45205571D01*
X66567553Y-45215724D01*
X66584208Y-45229392D01*
X66597876Y-45246047D01*
X66608029Y-45265043D01*
X66614284Y-45285662D01*
X66617000Y-45313240D01*
X66617000Y-45821960D01*
X66614284Y-45849538D01*
X66608029Y-45870157D01*
X66597876Y-45889153D01*
X66584208Y-45905808D01*
X66567553Y-45919476D01*
X66548557Y-45929629D01*
X66527938Y-45935884D01*
X66500360Y-45938600D01*
X66041640Y-45938600D01*
X66014062Y-45935884D01*
X65993443Y-45929629D01*
X65974447Y-45919476D01*
X65957792Y-45905808D01*
X65944124Y-45889153D01*
X65933971Y-45870157D01*
X65927716Y-45849538D01*
X65925000Y-45821960D01*
X65925000Y-45313240D01*
X65927716Y-45285662D01*
X65933971Y-45265043D01*
X65944124Y-45246047D01*
X65957792Y-45229392D01*
X65974447Y-45215724D01*
X65993443Y-45205571D01*
X66014062Y-45199316D01*
X66041640Y-45196600D01*
X66500360Y-45196600D01*
X66527938Y-45199316D01*
G37*
G36*
X63073538Y-44970716D02*
G01*
X63094157Y-44976971D01*
X63113153Y-44987124D01*
X63129808Y-45000792D01*
X63143476Y-45017447D01*
X63153629Y-45036443D01*
X63159884Y-45057062D01*
X63162600Y-45084640D01*
X63162600Y-45593360D01*
X63159884Y-45620938D01*
X63153629Y-45641557D01*
X63143476Y-45660553D01*
X63129808Y-45677208D01*
X63113153Y-45690876D01*
X63094157Y-45701029D01*
X63073538Y-45707284D01*
X63045960Y-45710000D01*
X62587240Y-45710000D01*
X62559662Y-45707284D01*
X62539043Y-45701029D01*
X62520047Y-45690876D01*
X62503392Y-45677208D01*
X62489724Y-45660553D01*
X62479571Y-45641557D01*
X62473316Y-45620938D01*
X62470600Y-45593360D01*
X62470600Y-45084640D01*
X62473316Y-45057062D01*
X62479571Y-45036443D01*
X62489724Y-45017447D01*
X62503392Y-45000792D01*
X62520047Y-44987124D01*
X62539043Y-44976971D01*
X62559662Y-44970716D01*
X62587240Y-44968000D01*
X63045960Y-44968000D01*
X63073538Y-44970716D01*
G37*
G36*
X62103538Y-44970716D02*
G01*
X62124157Y-44976971D01*
X62143153Y-44987124D01*
X62159808Y-45000792D01*
X62173476Y-45017447D01*
X62183629Y-45036443D01*
X62189884Y-45057062D01*
X62192600Y-45084640D01*
X62192600Y-45593360D01*
X62189884Y-45620938D01*
X62183629Y-45641557D01*
X62173476Y-45660553D01*
X62159808Y-45677208D01*
X62143153Y-45690876D01*
X62124157Y-45701029D01*
X62103538Y-45707284D01*
X62075960Y-45710000D01*
X61617240Y-45710000D01*
X61589662Y-45707284D01*
X61569043Y-45701029D01*
X61550047Y-45690876D01*
X61533392Y-45677208D01*
X61519724Y-45660553D01*
X61509571Y-45641557D01*
X61503316Y-45620938D01*
X61500600Y-45593360D01*
X61500600Y-45084640D01*
X61503316Y-45057062D01*
X61509571Y-45036443D01*
X61519724Y-45017447D01*
X61533392Y-45000792D01*
X61550047Y-44987124D01*
X61569043Y-44976971D01*
X61589662Y-44970716D01*
X61617240Y-44968000D01*
X62075960Y-44968000D01*
X62103538Y-44970716D01*
G37*
G36*
X64188338Y-44871116D02*
G01*
X64208957Y-44877371D01*
X64227953Y-44887524D01*
X64244608Y-44901192D01*
X64258276Y-44917847D01*
X64268429Y-44936843D01*
X64274684Y-44957462D01*
X64277400Y-44985040D01*
X64277400Y-45443760D01*
X64274684Y-45471338D01*
X64268429Y-45491957D01*
X64258276Y-45510953D01*
X64244608Y-45527608D01*
X64227953Y-45541276D01*
X64208957Y-45551429D01*
X64188338Y-45557684D01*
X64160760Y-45560400D01*
X63652040Y-45560400D01*
X63624462Y-45557684D01*
X63603843Y-45551429D01*
X63584847Y-45541276D01*
X63568192Y-45527608D01*
X63554524Y-45510953D01*
X63544371Y-45491957D01*
X63538116Y-45471338D01*
X63535400Y-45443760D01*
X63535400Y-44985040D01*
X63538116Y-44957462D01*
X63544371Y-44936843D01*
X63554524Y-44917847D01*
X63568192Y-44901192D01*
X63584847Y-44887524D01*
X63603843Y-44877371D01*
X63624462Y-44871116D01*
X63652040Y-44868400D01*
X64160760Y-44868400D01*
X64188338Y-44871116D01*
G37*
G36*
X54516721Y-43920174D02*
G01*
X54616995Y-43961709D01*
X54624973Y-43967040D01*
X54707242Y-44022010D01*
X54783990Y-44098758D01*
X54814345Y-44144188D01*
X54844291Y-44189005D01*
X54885826Y-44289279D01*
X54907000Y-44395730D01*
X54907000Y-44504270D01*
X54885826Y-44610721D01*
X54844291Y-44710995D01*
X54844290Y-44710996D01*
X54783990Y-44801242D01*
X54707242Y-44877990D01*
X54692973Y-44887524D01*
X54616995Y-44938291D01*
X54516721Y-44979826D01*
X54410270Y-45001000D01*
X54301730Y-45001000D01*
X54195279Y-44979826D01*
X54095005Y-44938291D01*
X54019027Y-44887524D01*
X54004758Y-44877990D01*
X53928010Y-44801242D01*
X53867710Y-44710996D01*
X53867709Y-44710995D01*
X53826174Y-44610721D01*
X53805000Y-44504270D01*
X53805000Y-44395730D01*
X53826174Y-44289279D01*
X53867709Y-44189005D01*
X53897655Y-44144188D01*
X53928010Y-44098758D01*
X54004758Y-44022010D01*
X54087027Y-43967040D01*
X54095005Y-43961709D01*
X54195279Y-43920174D01*
X54301730Y-43899000D01*
X54410270Y-43899000D01*
X54516721Y-43920174D01*
G37*
G36*
X62103538Y-43853116D02*
G01*
X62124157Y-43859371D01*
X62143153Y-43869524D01*
X62159808Y-43883192D01*
X62173476Y-43899847D01*
X62183629Y-43918843D01*
X62189884Y-43939462D01*
X62192600Y-43967040D01*
X62192600Y-44475760D01*
X62189884Y-44503338D01*
X62183629Y-44523957D01*
X62173476Y-44542953D01*
X62159808Y-44559608D01*
X62143153Y-44573276D01*
X62124157Y-44583429D01*
X62103538Y-44589684D01*
X62075960Y-44592400D01*
X61617240Y-44592400D01*
X61589662Y-44589684D01*
X61569043Y-44583429D01*
X61550047Y-44573276D01*
X61533392Y-44559608D01*
X61519724Y-44542953D01*
X61509571Y-44523957D01*
X61503316Y-44503338D01*
X61500600Y-44475760D01*
X61500600Y-43967040D01*
X61503316Y-43939462D01*
X61509571Y-43918843D01*
X61519724Y-43899847D01*
X61533392Y-43883192D01*
X61550047Y-43869524D01*
X61569043Y-43859371D01*
X61589662Y-43853116D01*
X61617240Y-43850400D01*
X62075960Y-43850400D01*
X62103538Y-43853116D01*
G37*
G36*
X63073538Y-43853116D02*
G01*
X63094157Y-43859371D01*
X63113153Y-43869524D01*
X63129808Y-43883192D01*
X63143476Y-43899847D01*
X63153629Y-43918843D01*
X63159884Y-43939462D01*
X63162600Y-43967040D01*
X63162600Y-44475760D01*
X63159884Y-44503338D01*
X63153629Y-44523957D01*
X63143476Y-44542953D01*
X63129808Y-44559608D01*
X63113153Y-44573276D01*
X63094157Y-44583429D01*
X63073538Y-44589684D01*
X63045960Y-44592400D01*
X62587240Y-44592400D01*
X62559662Y-44589684D01*
X62539043Y-44583429D01*
X62520047Y-44573276D01*
X62503392Y-44559608D01*
X62489724Y-44542953D01*
X62479571Y-44523957D01*
X62473316Y-44503338D01*
X62470600Y-44475760D01*
X62470600Y-43967040D01*
X62473316Y-43939462D01*
X62479571Y-43918843D01*
X62489724Y-43899847D01*
X62503392Y-43883192D01*
X62520047Y-43869524D01*
X62539043Y-43859371D01*
X62559662Y-43853116D01*
X62587240Y-43850400D01*
X63045960Y-43850400D01*
X63073538Y-43853116D01*
G37*
G36*
X64188338Y-43901116D02*
G01*
X64208957Y-43907371D01*
X64227953Y-43917524D01*
X64244608Y-43931192D01*
X64258276Y-43947847D01*
X64268429Y-43966843D01*
X64274684Y-43987462D01*
X64277400Y-44015040D01*
X64277400Y-44473760D01*
X64274684Y-44501338D01*
X64268429Y-44521957D01*
X64258276Y-44540953D01*
X64244608Y-44557608D01*
X64227953Y-44571276D01*
X64208957Y-44581429D01*
X64188338Y-44587684D01*
X64160760Y-44590400D01*
X63652040Y-44590400D01*
X63624462Y-44587684D01*
X63603843Y-44581429D01*
X63584847Y-44571276D01*
X63568192Y-44557608D01*
X63554524Y-44540953D01*
X63544371Y-44521957D01*
X63538116Y-44501338D01*
X63535400Y-44473760D01*
X63535400Y-44015040D01*
X63538116Y-43987462D01*
X63544371Y-43966843D01*
X63554524Y-43947847D01*
X63568192Y-43931192D01*
X63584847Y-43917524D01*
X63603843Y-43907371D01*
X63624462Y-43901116D01*
X63652040Y-43898400D01*
X64160760Y-43898400D01*
X64188338Y-43901116D01*
G37*
G36*
X71280721Y-43158174D02*
G01*
X71380995Y-43199709D01*
X71380996Y-43199710D01*
X71471242Y-43260010D01*
X71547990Y-43336758D01*
X71547991Y-43336760D01*
X71608291Y-43427005D01*
X71649826Y-43527279D01*
X71671000Y-43633730D01*
X71671000Y-43742270D01*
X71649826Y-43848721D01*
X71608291Y-43948995D01*
X71590724Y-43975286D01*
X71547990Y-44039242D01*
X71471242Y-44115990D01*
X71425812Y-44146345D01*
X71380995Y-44176291D01*
X71280721Y-44217826D01*
X71174270Y-44239000D01*
X71065730Y-44239000D01*
X70959279Y-44217826D01*
X70859005Y-44176291D01*
X70814188Y-44146345D01*
X70768758Y-44115990D01*
X70692010Y-44039242D01*
X70649276Y-43975286D01*
X70631709Y-43948995D01*
X70590174Y-43848721D01*
X70569000Y-43742270D01*
X70569000Y-43633730D01*
X70590174Y-43527279D01*
X70631709Y-43427005D01*
X70692009Y-43336760D01*
X70692010Y-43336758D01*
X70768758Y-43260010D01*
X70859004Y-43199710D01*
X70859005Y-43199709D01*
X70959279Y-43158174D01*
X71065730Y-43137000D01*
X71174270Y-43137000D01*
X71280721Y-43158174D01*
G37*
G36*
X54516721Y-41888174D02*
G01*
X54616995Y-41929709D01*
X54616996Y-41929710D01*
X54707242Y-41990010D01*
X54783990Y-42066758D01*
X54783991Y-42066760D01*
X54844291Y-42157005D01*
X54885826Y-42257279D01*
X54907000Y-42363730D01*
X54907000Y-42472270D01*
X54885826Y-42578721D01*
X54844291Y-42678995D01*
X54844290Y-42678996D01*
X54783990Y-42769242D01*
X54707242Y-42845990D01*
X54661812Y-42876345D01*
X54616995Y-42906291D01*
X54516721Y-42947826D01*
X54410270Y-42969000D01*
X54301730Y-42969000D01*
X54195279Y-42947826D01*
X54095005Y-42906291D01*
X54050188Y-42876345D01*
X54004758Y-42845990D01*
X53928010Y-42769242D01*
X53867710Y-42678996D01*
X53867709Y-42678995D01*
X53826174Y-42578721D01*
X53805000Y-42472270D01*
X53805000Y-42363730D01*
X53826174Y-42257279D01*
X53867709Y-42157005D01*
X53928009Y-42066760D01*
X53928010Y-42066758D01*
X54004758Y-41990010D01*
X54095004Y-41929710D01*
X54095005Y-41929709D01*
X54195279Y-41888174D01*
X54301730Y-41867000D01*
X54410270Y-41867000D01*
X54516721Y-41888174D01*
G37*
G36*
X54516721Y-39856174D02*
G01*
X54616995Y-39897709D01*
X54616996Y-39897710D01*
X54707242Y-39958010D01*
X54783990Y-40034758D01*
X54783991Y-40034760D01*
X54844291Y-40125005D01*
X54885826Y-40225279D01*
X54907000Y-40331730D01*
X54907000Y-40440270D01*
X54885826Y-40546721D01*
X54844291Y-40646995D01*
X54844290Y-40646996D01*
X54783990Y-40737242D01*
X54707242Y-40813990D01*
X54661812Y-40844345D01*
X54616995Y-40874291D01*
X54516721Y-40915826D01*
X54410270Y-40937000D01*
X54301730Y-40937000D01*
X54195279Y-40915826D01*
X54095005Y-40874291D01*
X54050188Y-40844345D01*
X54004758Y-40813990D01*
X53928010Y-40737242D01*
X53867710Y-40646996D01*
X53867709Y-40646995D01*
X53826174Y-40546721D01*
X53805000Y-40440270D01*
X53805000Y-40331730D01*
X53826174Y-40225279D01*
X53867709Y-40125005D01*
X53928009Y-40034760D01*
X53928010Y-40034758D01*
X54004758Y-39958010D01*
X54095004Y-39897710D01*
X54095005Y-39897709D01*
X54195279Y-39856174D01*
X54301730Y-39835000D01*
X54410270Y-39835000D01*
X54516721Y-39856174D01*
G37*
M02*
